<svg xmlns="http://www.w3.org/2000/svg" xmlns:xlink="http://www.w3.org/1999/xlink" width="480" zoomAndPan="magnify" viewBox="0 0 360 359.999987" height="480" preserveAspectRatio="xMidYMid meet" version="1.0"><defs><g/></defs><g fill="#ab8c51" fill-opacity="1"><g transform="translate(108.294655, 117.212654)"><g><path d="M -1.019531 13.503906 C -3.128906 13.503906 -2.175781 10.210938 -1.648438 9.058594 C -0.988281 7.609375 -0.164062 6.160156 0.789062 4.972656 L 3.03125 2.4375 C 3.328125 2.109375 3.589844 1.976562 3.886719 1.679688 C 4.183594 1.316406 4.445312 1.152344 4.777344 0.890625 L 6.652344 -0.527344 C 7.015625 -0.726562 7.3125 -0.921875 7.640625 -1.121094 C 7.640625 0.558594 5.105469 7.640625 3.722656 9.453125 C 2.996094 10.902344 0.527344 13.503906 -1.019531 13.503906 Z M 0.492188 -13.210938 C 0.492188 -12.023438 0.59375 -10.9375 1.085938 -10.144531 C 1.910156 -8.894531 2.734375 -8.796875 3.984375 -8.796875 C 4.414062 -8.796875 4.511719 -9.488281 3.886719 -9.617188 C 3.195312 -9.75 2.996094 -9.617188 2.535156 -10.046875 C 1.648438 -10.640625 1.480469 -11.824219 1.480469 -13.011719 C 1.480469 -16.140625 3.589844 -19.960938 5.371094 -22.234375 C 6.292969 -23.453125 7.082031 -24.246094 7.742188 -24.246094 C 8.269531 -24.246094 8.730469 -23.683594 9.058594 -22.300781 C 9.617188 -20.160156 9.386719 -19.007812 9.488281 -18.050781 C 9.554688 -17.589844 9.585938 -17.164062 9.585938 -16.601562 L 9.191406 -10.707031 C 9.058594 -9.71875 8.992188 -8.761719 8.894531 -7.871094 C 8.796875 -7.082031 8.234375 -2.832031 7.9375 -2.46875 L 6.027344 -1.351562 C 3.921875 0.132812 2.304688 1.546875 0.660156 3.523438 C -0.890625 5.371094 -3.292969 8.992188 -3.292969 11.429688 L -3.292969 12.351562 C -3.292969 13.671875 -2.273438 14.492188 -0.855469 14.492188 C 0.957031 14.492188 3.128906 12.453125 4.183594 11.132812 C 6.984375 7.410156 8.433594 2.964844 9.488281 -1.515625 C 9.785156 -2.601562 9.847656 -2.339844 10.738281 -2.734375 C 11.761719 -3.261719 13.144531 -3.722656 14.261719 -4.050781 C 14.660156 -4.152344 17.789062 -5.074219 17.789062 -5.335938 C 17.789062 -5.566406 17.722656 -5.601562 17.65625 -5.832031 C 16.175781 -5.832031 15.019531 -5.335938 13.636719 -4.875 C 12.980469 -4.613281 12.386719 -4.414062 11.824219 -4.214844 C 11.265625 -4.019531 10.476562 -3.753906 9.980469 -3.492188 L 10.476562 -6.589844 C 10.9375 -9.585938 12.75 -25.5625 8.070312 -25.5625 C 5.863281 -25.5625 3.886719 -22.335938 2.898438 -20.589844 C 1.910156 -18.808594 0.492188 -15.878906 0.492188 -13.210938 Z M 0.492188 -13.210938 "/></g></g></g><g fill="#ab8c51" fill-opacity="1"><g transform="translate(124.500167, 117.212654)"><g><path d="M 1.515625 -5.960938 C 1.746094 -6.785156 2.832031 -8.070312 3.722656 -8.234375 C 3.625 -7.179688 2.339844 -6.390625 1.515625 -5.960938 Z M 0.03125 -5.171875 C 0.03125 -4.25 0 -3.425781 0.789062 -2.636719 C 1.351562 -2.074219 2.007812 -1.84375 2.699219 -1.84375 C 4.710938 -1.84375 6.984375 -3.855469 8.203125 -5.074219 C 8.5 -5.433594 8.5 -5.46875 8.398438 -5.960938 C 7.410156 -5.960938 7.9375 -5.832031 6.589844 -4.777344 C 6.359375 -4.613281 6.257812 -4.480469 5.996094 -4.28125 C 5.335938 -3.789062 3.953125 -2.832031 2.800781 -2.832031 C 2.40625 -2.832031 2.007812 -2.964844 1.714844 -3.261719 C 1.152344 -3.820312 1.21875 -4.347656 1.21875 -5.039062 C 2.238281 -5.105469 3.425781 -6.0625 3.953125 -6.652344 C 4.972656 -7.9375 4.972656 -9.257812 3.523438 -9.257812 C 1.945312 -9.257812 0.03125 -6.820312 0.03125 -5.171875 Z M 0.03125 -5.171875 "/></g></g></g><g fill="#ab8c51" fill-opacity="1"><g transform="translate(131.647721, 117.212654)"><g><path d="M 0 -3.328125 C 0 -2.140625 0.0976562 -1.582031 1.316406 -1.582031 C 2.273438 -1.582031 3.292969 -4.675781 3.921875 -5.105469 C 3.921875 -3.6875 4.972656 -1.976562 6.621094 -1.976562 C 7.179688 -1.976562 7.808594 -2.175781 8.464844 -2.636719 L 9.453125 -3.425781 C 11.132812 -5.039062 10.9375 -5.863281 10.441406 -5.863281 C 10.246094 -5.863281 10.015625 -5.765625 9.847656 -5.535156 C 9.386719 -5.039062 9.289062 -4.742188 8.664062 -4.183594 C 7.9375 -3.457031 7.246094 -3.0625 6.621094 -3.0625 C 5.929688 -3.0625 5.335938 -3.589844 5.074219 -4.777344 C 4.777344 -6.027344 5.335938 -7.511719 4.183594 -7.511719 C 3.753906 -7.511719 2.40625 -4.710938 1.746094 -3.6875 L 1.480469 -3.292969 C 1.316406 -3.097656 1.417969 -3.226562 1.316406 -3.128906 C 1.316406 -4.214844 1.777344 -5.46875 2.207031 -6.160156 C 3.164062 -7.808594 3.820312 -8.269531 4.316406 -8.269531 C 4.941406 -8.269531 5.335938 -7.511719 5.796875 -7.511719 C 6.652344 -7.511719 5.796875 -9.386719 4.25 -9.386719 C 1.945312 -9.386719 0 -5.203125 0 -3.328125 Z M 0 -3.328125 "/></g></g></g><g fill="#ab8c51" fill-opacity="1"><g transform="translate(141.199753, 117.212654)"><g><path d="M 0.921875 -1.714844 C 2.207031 -1.714844 3.523438 -5.929688 4.613281 -6.652344 C 4.910156 -6.027344 4.445312 -4.710938 5.105469 -2.734375 C 5.402344 -1.84375 5.960938 -0.957031 6.984375 -0.957031 C 7.179688 -0.957031 7.378906 -0.988281 7.609375 -1.054688 C 8.367188 -1.25 9.421875 -2.570312 9.882812 -3.164062 C 10.078125 -3.425781 12.023438 -5.863281 10.738281 -5.863281 C 10.144531 -5.863281 8.398438 -1.945312 7.082031 -1.945312 C 5.863281 -1.945312 5.796875 -4.875 5.796875 -5.699219 L 5.601562 -7.542969 C 5.433594 -7.90625 5.203125 -8.070312 4.972656 -8.070312 C 4.183594 -8.070312 3.195312 -6.390625 2.996094 -6.027344 L 1.417969 -3.625 C 1.417969 -6.191406 3.558594 -9.289062 2.109375 -9.289062 C 0.855469 -9.289062 -1.1875 -1.714844 0.921875 -1.714844 Z M 0.921875 -1.714844 "/></g></g></g><g fill="#ab8c51" fill-opacity="1"><g transform="translate(151.081161, 117.212654)"><g><path d="M 0.921875 -1.714844 C 2.207031 -1.714844 3.523438 -5.929688 4.613281 -6.652344 C 4.910156 -6.027344 4.445312 -4.710938 5.105469 -2.734375 C 5.402344 -1.84375 5.960938 -0.957031 6.984375 -0.957031 C 7.179688 -0.957031 7.378906 -0.988281 7.609375 -1.054688 C 8.367188 -1.25 9.421875 -2.570312 9.882812 -3.164062 C 10.078125 -3.425781 12.023438 -5.863281 10.738281 -5.863281 C 10.144531 -5.863281 8.398438 -1.945312 7.082031 -1.945312 C 5.863281 -1.945312 5.796875 -4.875 5.796875 -5.699219 L 5.601562 -7.542969 C 5.433594 -7.90625 5.203125 -8.070312 4.972656 -8.070312 C 4.183594 -8.070312 3.195312 -6.390625 2.996094 -6.027344 L 1.417969 -3.625 C 1.417969 -6.191406 3.558594 -9.289062 2.109375 -9.289062 C 0.855469 -9.289062 -1.1875 -1.714844 0.921875 -1.714844 Z M 0.921875 -1.714844 "/></g></g></g><g fill="#ab8c51" fill-opacity="1"><g transform="translate(160.96257, 117.212654)"><g><path d="M 1.515625 -5.960938 C 1.746094 -6.785156 2.832031 -8.070312 3.722656 -8.234375 C 3.625 -7.179688 2.339844 -6.390625 1.515625 -5.960938 Z M 0.03125 -5.171875 C 0.03125 -4.25 0 -3.425781 0.789062 -2.636719 C 1.351562 -2.074219 2.007812 -1.84375 2.699219 -1.84375 C 4.710938 -1.84375 6.984375 -3.855469 8.203125 -5.074219 C 8.5 -5.433594 8.5 -5.46875 8.398438 -5.960938 C 7.410156 -5.960938 7.9375 -5.832031 6.589844 -4.777344 C 6.359375 -4.613281 6.257812 -4.480469 5.996094 -4.28125 C 5.335938 -3.789062 3.953125 -2.832031 2.800781 -2.832031 C 2.40625 -2.832031 2.007812 -2.964844 1.714844 -3.261719 C 1.152344 -3.820312 1.21875 -4.347656 1.21875 -5.039062 C 2.238281 -5.105469 3.425781 -6.0625 3.953125 -6.652344 C 4.972656 -7.9375 4.972656 -9.257812 3.523438 -9.257812 C 1.945312 -9.257812 0.03125 -6.820312 0.03125 -5.171875 Z M 0.03125 -5.171875 "/></g></g></g><g fill="#ab8c51" fill-opacity="1"><g transform="translate(168.110124, 117.212654)"><g/></g></g><g fill="#ab8c51" fill-opacity="1"><g transform="translate(176.641073, 117.212654)"><g><path d="M 2.238281 -3.953125 C 2.238281 -2.4375 2.46875 -1.152344 3.789062 -0.261719 C 4.445312 0.164062 5.105469 0.363281 5.796875 0.363281 C 7.378906 0.363281 8.925781 -0.625 10.210938 -1.546875 C 11.363281 -2.40625 11.660156 -2.867188 12.582031 -3.65625 L 13.769531 -2.667969 C 14.394531 -2.074219 17.226562 0.296875 17.625 0.296875 C 18.414062 0.296875 16.933594 -1.019531 16.832031 -1.085938 L 16.175781 -1.777344 C 15.714844 -2.371094 13.867188 -4.183594 13.40625 -4.414062 C 13.605469 -4.675781 14.066406 -5.140625 14.328125 -5.371094 C 14.527344 -5.566406 14.660156 -5.601562 14.855469 -5.832031 L 16.765625 -7.808594 C 16.898438 -7.972656 17.164062 -8.136719 17.164062 -8.398438 C 17.164062 -8.566406 17.03125 -8.695312 16.867188 -8.695312 C 16.636719 -8.695312 13.375 -5.46875 12.8125 -5.105469 L 10.9375 -6.882812 C 10.773438 -7.050781 10.773438 -7.117188 10.574219 -7.28125 C 9.257812 -8.597656 8.300781 -10.246094 7.871094 -12.054688 C 8.203125 -12.285156 8.664062 -12.847656 8.992188 -13.175781 C 10.078125 -14.164062 11.265625 -15.054688 12.386719 -16.007812 L 13.671875 -17.164062 C 13.96875 -17.492188 14.230469 -17.789062 14.230469 -18.214844 C 14.230469 -18.644531 13.933594 -18.84375 13.441406 -18.84375 C 11.957031 -18.84375 8.761719 -17.03125 7.578125 -15.054688 C 7.28125 -14.527344 6.984375 -13.835938 6.917969 -13.242188 C 6.785156 -12.453125 7.214844 -12.8125 6.128906 -11.628906 C 4.480469 -9.882812 2.238281 -6.128906 2.238281 -3.953125 Z M 5.929688 -0.757812 L 5.535156 -0.757812 C 3.984375 -0.757812 3.226562 -2.109375 3.226562 -3.753906 C 3.226562 -6.257812 5.46875 -9.355469 7.050781 -11.167969 C 7.148438 -10.179688 8.597656 -7.773438 9.386719 -6.984375 L 10.441406 -5.796875 C 10.804688 -5.402344 11.660156 -4.644531 11.925781 -4.28125 C 11.761719 -4.050781 10.96875 -3.394531 10.707031 -3.164062 C 9.519531 -2.175781 7.609375 -0.757812 5.929688 -0.757812 Z M 8.003906 -13.636719 C 8.203125 -15.449219 11.296875 -17.65625 12.980469 -17.855469 C 12.8125 -17.625 12.914062 -17.722656 12.683594 -17.589844 L 11.761719 -16.765625 C 10.96875 -16.140625 10.015625 -15.417969 9.289062 -14.726562 Z M 8.003906 -13.636719 "/></g></g></g><g fill="#ab8c51" fill-opacity="1"><g transform="translate(195.580447, 117.212654)"><g/></g></g><g fill="#ab8c51" fill-opacity="1"><g transform="translate(204.111395, 117.212654)"><g><path d="M 12.121094 0.824219 C 12.121094 0.132812 11.957031 -0.363281 11.957031 -1.679688 C 11.957031 -3.984375 12.75 -10.046875 12.023438 -11.296875 C 11.890625 -11.59375 11.59375 -11.761719 11.265625 -11.761719 C 11.035156 -11.761719 10.804688 -11.695312 10.605469 -11.5625 C 9.914062 -11.101562 9.289062 -9.816406 8.859375 -8.992188 C 6.523438 -4.25 5.238281 2.042969 3.753906 7.445312 L 2.964844 9.816406 C 2.800781 10.179688 2.800781 10.34375 2.4375 10.441406 L 2.109375 8.828125 C 1.21875 3.492188 1.976562 -5.304688 2.667969 -10.113281 C 3.261719 -14.097656 3.6875 -16.4375 4.710938 -20.191406 C 4.910156 -20.851562 5.433594 -22.070312 4.511719 -22.070312 C 3.195312 -22.070312 1.546875 -11.992188 1.449219 -11.332031 C 1.152344 -9.289062 0.890625 -7.28125 0.660156 -5.203125 L 0.328125 1.449219 C 0.328125 3.589844 0.527344 11.726562 2.4375 11.726562 C 3.097656 11.726562 3.292969 11.398438 3.589844 10.871094 C 4.183594 9.421875 4.675781 8.003906 5.039062 6.488281 C 5.601562 4.546875 6.09375 2.371094 6.621094 0.296875 C 7.3125 -2.535156 8.828125 -7.742188 10.640625 -10.179688 C 10.871094 -10.476562 10.835938 -10.574219 11.234375 -10.671875 C 11.234375 -10.179688 11.296875 -9.882812 11.296875 -9.617188 L 10.804688 -3.03125 C 10.707031 -1.582031 10.707031 2.074219 12.121094 2.074219 C 13.867188 2.074219 15.777344 -5.371094 16.339844 -6.851562 C 17.226562 -9.027344 17.722656 -10.871094 18.808594 -13.273438 C 19.863281 -15.648438 20.457031 -16.996094 21.808594 -19.203125 C 22.300781 -20.0625 23.027344 -21.179688 23.882812 -21.609375 C 24.640625 -19.960938 23.058594 -11.792969 22.761719 -9.949219 C 22.039062 -5.632812 21.742188 -2.734375 21.214844 1.417969 L 20.226562 16.109375 C 20.257812 16.503906 20.257812 16.699219 20.292969 17.261719 C 20.324219 17.789062 20.621094 18.117188 20.882812 18.117188 C 21.113281 18.117188 21.347656 17.855469 21.347656 17.261719 C 21.347656 16.042969 21.3125 14.527344 21.410156 13.339844 C 21.9375 8.597656 22.167969 4.019531 22.894531 -0.855469 L 24.9375 -14.460938 C 25.101562 -15.582031 26.453125 -22.796875 23.882812 -22.796875 C 21.578125 -22.796875 17.789062 -13.636719 17.097656 -11.890625 C 15.777344 -8.53125 14.855469 -5.433594 13.605469 -2.175781 C 13.339844 -1.351562 12.714844 0.460938 12.121094 0.824219 Z M 12.121094 0.824219 "/></g></g></g><g fill="#ab8c51" fill-opacity="1"><g transform="translate(229.308995, 117.212654)"><g><path d="M 0 -3.328125 C 0 -2.140625 0.0976562 -1.582031 1.316406 -1.582031 C 2.273438 -1.582031 3.292969 -4.675781 3.921875 -5.105469 C 3.921875 -3.6875 4.972656 -1.976562 6.621094 -1.976562 C 7.179688 -1.976562 7.808594 -2.175781 8.464844 -2.636719 L 9.453125 -3.425781 C 11.132812 -5.039062 10.9375 -5.863281 10.441406 -5.863281 C 10.246094 -5.863281 10.015625 -5.765625 9.847656 -5.535156 C 9.386719 -5.039062 9.289062 -4.742188 8.664062 -4.183594 C 7.9375 -3.457031 7.246094 -3.0625 6.621094 -3.0625 C 5.929688 -3.0625 5.335938 -3.589844 5.074219 -4.777344 C 4.777344 -6.027344 5.335938 -7.511719 4.183594 -7.511719 C 3.753906 -7.511719 2.40625 -4.710938 1.746094 -3.6875 L 1.480469 -3.292969 C 1.316406 -3.097656 1.417969 -3.226562 1.316406 -3.128906 C 1.316406 -4.214844 1.777344 -5.46875 2.207031 -6.160156 C 3.164062 -7.808594 3.820312 -8.269531 4.316406 -8.269531 C 4.941406 -8.269531 5.335938 -7.511719 5.796875 -7.511719 C 6.652344 -7.511719 5.796875 -9.386719 4.25 -9.386719 C 1.945312 -9.386719 0 -5.203125 0 -3.328125 Z M 0 -3.328125 "/></g></g></g><g fill="#ab8c51" fill-opacity="1"><g transform="translate(238.861027, 117.212654)"><g><path d="M 0.460938 -0.132812 C 1.480469 -0.132812 1.085938 -1.25 1.285156 -2.109375 C 1.417969 -2.898438 1.714844 -3.558594 2.042969 -4.117188 C 2.570312 -4.972656 2.734375 -4.972656 3.984375 -4.972656 C 4.347656 -4.972656 4.84375 -4.941406 5.269531 -4.941406 C 5.929688 -4.941406 6.457031 -5.007812 6.457031 -5.46875 C 6.457031 -5.894531 5.433594 -5.960938 4.480469 -5.960938 C 3.921875 -5.960938 3.359375 -5.929688 3.0625 -5.929688 C 2.042969 -5.929688 1.84375 -5.304688 1.351562 -4.972656 C 1.351562 -5.402344 1.417969 -5.371094 1.417969 -5.832031 C 1.417969 -6.160156 1.417969 -6.554688 1.449219 -6.882812 C 1.546875 -7.808594 1.714844 -8.433594 0.824219 -8.433594 C 0.0976562 -8.433594 0.03125 -5.007812 0.03125 -4.414062 C 0.0664062 -3.589844 0.03125 -2.765625 0.0664062 -1.976562 C 0.0664062 -1.746094 -0.199219 -0.132812 0.460938 -0.132812 Z M 0.460938 -0.132812 "/></g></g></g><g fill="#ab8c51" fill-opacity="1"><g transform="translate(244.229924, 117.212654)"><g><path d="M 0 -2.503906 L 0 0.296875 C 0 0.921875 0.0664062 1.019531 0.0976562 1.515625 C 0.164062 2.339844 -0.132812 3.457031 0.757812 3.457031 C 1.417969 3.457031 1.613281 1.582031 2.109375 0.132812 L 3.558594 -3.03125 C 3.921875 -1.515625 4.152344 0 4.644531 1.449219 C 4.910156 2.238281 5.269531 3.753906 6.09375 4.152344 C 6.191406 4.183594 6.292969 4.214844 6.359375 4.214844 C 6.621094 4.214844 6.785156 3.984375 6.949219 3.789062 C 6.851562 3.359375 6.554688 3.0625 6.226562 2.238281 C 5.730469 0.921875 5.039062 -2.007812 4.910156 -3.394531 C 4.710938 -5.269531 4.675781 -5.238281 5.269531 -6.226562 C 5.433594 -6.488281 5.601562 -6.71875 5.765625 -6.984375 C 6.71875 -8.597656 8.039062 -9.683594 6.621094 -9.683594 C 5.535156 -9.683594 1.480469 -1.1875 1.285156 -0.988281 C 1.285156 -5.664062 1.878906 -12.15625 2.765625 -17.03125 C 3.03125 -18.511719 3.65625 -19.664062 2.371094 -19.664062 C 1.21875 -19.664062 0.527344 -12.582031 0.429688 -11.824219 C 0.164062 -8.894531 0 -5.664062 0 -2.503906 Z M 0 -2.503906 "/></g></g></g></svg>